<svg xmlns="http://www.w3.org/2000/svg" viewBox="0 0 139.5 145.37"><defs><style>.cls-1{fill:#64bb46;stroke:#64bb46;}.cls-1,.cls-2,.cls-3{stroke-miterlimit:10;}.cls-2,.cls-3{fill:none;stroke:#fff;}.cls-2{stroke-width:0.75px;}.cls-3{stroke-width:0.5px;}.cls-4{font-size:73px;fill:#231f20;font-family:Stardust-Adventure, Stardust Adventure;}</style></defs><title>Asset 1</title><g id="Layer_2" data-name="Layer 2"><g id="Layer_1-2" data-name="Layer 1"><path class="cls-1" d="M132,25.15c.91-.35-6.87-12.95-15.79-19.11-.86-.6,2.83,4.41,2,3.71-5.43-4.41-14.37-7.14-22.78-9.2-2-.47,5.15,2.33,2.83,2.12-5.24-.48-21.68-.52-29.08.76-2.59.44,5.13,1.26,2.72,1.82-6.36,1.49-21.48,5.18-26.6,7.27-2.11.86,5.28-.06,3.37.87-6.14,3-18,8.05-22.27,11.29-1,.73,4.92-.25,4,.38C17.94,33.32,9,42.61,9.64,42.85c-.58,1.19,8.84,7.26,19,11.31.84.34-2.45,1.19-1.64,1.7,4.18,2.65,13.22,5.12,19.26,7.28.87.31-3,.84-2.06,1.13,6.18,2,18,3.22,26.14,3.78.93.06-3,1.6-2,1.64,5.1.21,15.42-1.42,21.28-2,2.7-.28,5.21-.62,7.56-1,1.13-.19-.92,2.15.13,1.93A59.47,59.47,0,0,0,121,57c.72-.63-.06,2.91.53,2.26,4.07-4.45,6.56-11,8.08-17.11.29-1.17.17,3.93.52,2.84C132.57,37.54,132.69,25.15,132,25.15Z"/><path class="cls-2" d="M15.62,42.21c4.18-4,51.89-15.33,113.44-16.78"/><path class="cls-2" d="M125.06,25.43c0-7.21-2.26-13-5-13"/><path class="cls-2" d="M86,28.1c0-9.57-13.24-17.31-29.59-17.31"/><path class="cls-2" d="M62.22,31c0-4.71-12.62-8.52-28.23-8.52"/><path class="cls-2" d="M36.39,35.11c0-1.75-5.24-3.15-11.72-3.15"/><path class="cls-3" d="M28.13,38.48c0,3.39-3.93,6.12-8.78,6.12"/><path class="cls-2" d="M49.44,33.53c0,12.16-6.91,22-15.45,22"/><path class="cls-2" d="M75.78,29.22c0,19-9.28,34.29-20.75,34.29"/><path class="cls-2" d="M95.77,28.1c0,21-7.26,38.07-16.24,38.07"/><path class="cls-2" d="M110.42,26.18c0,19.31-2.38,34.93-5.33,34.93"/><path class="cls-2" d="M122.53,26.18c0,13.47-1.8,24.36-4,24.36"/><path class="cls-2" d="M116.46,25.87c0-11.14-6.39-20.15-14.28-20.15"/><path class="cls-2" d="M102.18,26.18A21.36,21.36,0,0,0,80.71,4.9"/><text class="cls-4" transform="translate(0 125.58)">Ceviche</text></g></g></svg>