<svg xmlns="http://www.w3.org/2000/svg" viewBox="0 0 124.01 70.46"><defs><style>.cls-1{fill:#64bb46;stroke-width:1.25px;}.cls-1,.cls-2,.cls-3{stroke:#fff;stroke-miterlimit:10;}.cls-2,.cls-3{fill:none;}.cls-2{stroke-width:0.75px;}.cls-3{stroke-width:0.5px;}</style></defs><title>Asset 2</title><g id="Layer_2" data-name="Layer 2"><g id="Layer_1-2" data-name="Layer 1"><path class="cls-1" d="M123,25.27c.92-.34-6.87-12.95-15.78-19.11-.87-.6,2.82,4.42,2,3.72C103.78,5.46,94.84,2.74,86.42.68,84.47.2,91.58,3,89.26,2.79c-5.24-.47-21.68-.52-29.08.76C57.59,4,65.3,4.81,62.89,5.38c-6.35,1.48-21.47,5.17-26.6,7.27-2.11.86,5.29-.07,3.37.86-6.13,3-18,8.06-22.26,11.3-1,.73,4.92-.25,4,.37C9,33.44,0,42.74.66,43c-.59,1.18,8.84,7.26,19,11.31.84.33-2.46,1.18-1.65,1.69,4.18,2.66,13.23,5.12,19.26,7.28.88.31-3,.84-2.06,1.14,6.18,2,18.05,3.21,26.14,3.77.93.07-3,1.61-2,1.65,5.09.21,15.42-1.43,21.27-2,2.7-.28,5.22-.63,7.57-1,1.13-.2-.93,2.15.13,1.93A59.42,59.42,0,0,0,112,57.08c.72-.63-.05,2.92.54,2.27,4.06-4.45,6.55-11,8.08-17.12.29-1.17.16,3.94.52,2.84C123.59,37.67,123.7,25.27,123,25.27Z"/><path class="cls-2" d="M6.63,42.33c4.19-4,51.9-15.33,113.44-16.77"/><path class="cls-2" d="M116.08,25.56c0-7.22-2.26-13-5.06-13"/><path class="cls-2" d="M77,28.22c0-9.57-13.23-17.31-29.58-17.31"/><path class="cls-2" d="M53.24,31.15c0-4.71-12.63-8.52-28.23-8.52"/><path class="cls-2" d="M27.41,35.23c0-1.74-5.25-3.15-11.72-3.15"/><path class="cls-3" d="M19.15,38.61c0,3.38-3.93,6.12-8.79,6.12"/><path class="cls-2" d="M40.45,33.66c0,12.15-6.9,22-15.44,22"/><path class="cls-2" d="M66.79,29.34c0,19-9.28,34.3-20.74,34.3"/><path class="cls-2" d="M86.79,28.22c0,21.05-7.27,38.08-16.25,38.08"/><path class="cls-2" d="M101.43,26.31c0,19.3-2.38,34.93-5.32,34.93"/><path class="cls-2" d="M113.55,26.31c0,13.46-1.81,24.36-4,24.36"/><path class="cls-2" d="M107.48,26c0-11.13-6.39-20.14-14.29-20.14"/><path class="cls-2" d="M93.19,26.31A21.35,21.35,0,0,0,71.73,5"/></g></g></svg>