<svg xmlns="http://www.w3.org/2000/svg" viewBox="0 0 98.47 94.84"><defs><style>.cls-1{fill:#fff;}</style></defs><title>Asset 1</title><g id="Layer_2" data-name="Layer 2"><g id="Layer_1-2" data-name="Layer 1"><path class="cls-1" d="M9.28,84.38S-5.5,77,2.24,62.56,6.4,48.8,6.17,46c0,0,5.76-1.38,7.14,13.83S17,53,15.15,49.49,13.31,32.9,17.69,28.06s6.22-4.6,6.22-4.6-3.46,16.35,1.15,18c0,0,9.22-13.83,5.3-18,0,0,7.14.7,6.68,15.67,0,0,3.58-4.76,2.14-10.27s-2.43-15.8.34-19.15c0,0,4-6.83,8.76-9.7,0,0-6.25,20.57,7.51,30,0,0,4.2-10.91,10.24-12.76,0,0-4.33,13.61,0,18.37,0,0-.33-3,4.21-4,0,0-1.33,9.86,3.88,13.19,0,0,6.65-10.42,1.33-20.83,0,0,14.85,8.64,10.53,26.14,0,0-1.63,14.41,1.36,14.55,0,0,0-14.72,5.73-16.76,0,0-.41,16.08,4.09,16.08s-4,17.16-4,17.16Z"/><polygon class="cls-1" points="24.76 67.63 5.18 94.83 11.52 94.83 28.61 67.63 24.76 67.63"/><polyline class="cls-1" points="33.44 67.63 19.52 94.83 25.32 94.83 36.63 67.63"/><polyline class="cls-1" points="41.55 67.63 33.73 94.83 39.24 94.83 44.45 67.63"/><polyline class="cls-1" points="48.77 67.63 47.86 94.83 52.29 94.83 51.37 67.63"/><polyline class="cls-1" points="55.86 67.63 59.58 94.83 64.01 94.83 58.34 67.63"/><polyline class="cls-1" points="63.02 67.63 71.16 93.83 75.54 93.83 65.32 67.63"/><polyline class="cls-1" points="70.95 67.63 82.64 92.79 87.65 92.79 74.08 67.63"/><polygon class="cls-1" points="80.14 67.63 92.66 91.74 97.46 91.74 83.27 67.63 80.14 67.63"/></g></g></svg>