<?xml version="1.0" encoding="utf-8"?>
<!-- Generator: Adobe Illustrator 22.0.1, SVG Export Plug-In . SVG Version: 6.00 Build 0)  -->
<svg version="1.1" id="Layer_1" xmlns="http://www.w3.org/2000/svg" xmlns:xlink="http://www.w3.org/1999/xlink" x="0px" y="0px"
	 viewBox="0 0 179.8 179.4" style="enable-background:new 0 0 179.8 179.4;" xml:space="preserve">
<style type="text/css">
	.st0{fill:none;stroke:#FFFFFF;stroke-miterlimit:10;}
	.st1{fill:#FFFFFF;stroke:#FFFFFF;stroke-miterlimit:10;}
</style>
<g>
	<path class="st0" d="M167,179H12c-6.6,0-12-5.4-12-12V12C0,5.4,5.4,0,12,0h155c6.6,0,12,5.4,12,12v155C179,173.6,173.6,179,167,179
		z"/>
	<path class="st1" d="M63.9,115.6c-3.9-0.1-7.7,0.4-9.9-2.1c-3.5-4-2.6-12.5-2.2-20.5c1.1-23,4.8-49.6,8.2-59.2
		c2.1-5.8,4.5-8.2,5.9-5c4.9,11.2,7.8,52.8,8.6,62.6c2,26.6,3.7,55,7.8,81.3c6.2,0.5,12.5,0.3,18.7-0.5c0.7-3.8,1.9-7.9,2.9-12.1
		c2.5-10.5,3.2-41.3,5.4-62.7c0.6-5.5,1.2-10.6-2.4-11.6c-9.8-2.8-8.4-5.4-8.5-17.7c-0.1-11.3-0.1-22.5-0.2-33.8
		c0-1.8,0.5-5.4,1.7-5.5c1.2,0,1.6,3.7,1.6,5.4c0.1,8.7,0.2,17.8,0.3,26.5c0,2.2,4.4,5.4,4.3,2.7L106,34.2c0-1.8,0.5-5.4,1.7-5.5
		c1.2,0,1.6,3.7,1.6,5.4c0.1,10,0.1,19.9,0.3,29.8c0.1,3.4,4.9,3.3,4.8,0c-0.1-5.2-0.2-19.7-0.3-29.7c0-1.8,0.5-5.4,1.7-5.5
		c1.2,0,1.6,3.7,1.6,5.4c0.1,9.8,0.2,19.6,0.3,29.4c0,3.3,4.7-1.4,4.6-3.1l-0.2-26.4c0-1.8,0.5-5.4,1.7-5.5c1.2,0,1.6,3.7,1.6,5.4
		c0.1,11.1,0.2,22.2,0.4,33.2c0.2,12.8,2.1,15.9-8.6,18.6c-3,0.8-3.2,5.6-2.4,11.5c2.6,21.3,3.4,51.7,6.1,62.6
		c0.5,2.1,1.1,4.1,1.6,6.1c13.2-5.7,25.1-14.9,34.2-27.4c27.1-37.3,18.9-89.5-18.4-116.6C101.3-5.1,49.1,3.1,22,40.4
		C-5.1,77.7,3.1,129.9,40.4,157c8.4,6.1,17.6,10.4,27.1,13C69.6,154.8,72.7,115.9,63.9,115.6z"/>
</g>
</svg>
