<svg xmlns="http://www.w3.org/2000/svg" viewBox="0 0 281.19 85.84"><defs><style>.cls-1{fill:#64bb46;stroke:#fcfcfc;stroke-width:2px;}.cls-1,.cls-2,.cls-3{stroke-miterlimit:10;}.cls-2,.cls-3{fill:none;stroke:#fff;}.cls-2{stroke-width:0.75px;}.cls-3{stroke-width:0.5px;}.cls-4{font-size:80px;fill:#231f20;font-family:Stardust-Adventure, Stardust Adventure;}</style></defs><title>Asset 1</title><g id="Layer_2" data-name="Layer 2"><g id="Layer_1-2" data-name="Layer 1"><path class="cls-1" d="M123.4,33.78c.91-.34-6.87-12.94-15.79-19.11-.86-.59,2.83,4.42,2,3.72C104.15,14,95.21,11.25,86.8,9.19c-2-.47,5.15,2.33,2.83,2.12-5.24-.48-21.68-.52-29.08.75-2.59.45,5.13,1.26,2.72,1.83-6.35,1.49-21.48,5.17-26.6,7.27C34.56,22,42,21.1,40,22c-6.14,3-18,8-22.27,11.29-.95.73,4.92-.25,4,.38C9.33,42,.41,51.25,1,51.49.45,52.68,9.87,58.75,20,62.8c.84.34-2.45,1.18-1.64,1.7,4.18,2.65,13.23,5.12,19.26,7.27.87.32-3,.85-2.06,1.14,6.18,2,18,3.22,26.14,3.78.93.06-3,1.6-2,1.64,5.1.21,15.42-1.42,21.28-2,2.7-.28,5.21-.62,7.56-1,1.14-.2-.92,2.15.13,1.93a59.47,59.47,0,0,0,23.77-11.62c.72-.62-.06,2.92.54,2.27,4.06-4.45,6.55-11,8.07-17.11.3-1.18.17,3.93.53,2.84C124,46.18,124.08,33.79,123.4,33.78Z"/><path class="cls-2" d="M7,50.85c4.18-4,51.89-15.33,113.44-16.78"/><path class="cls-3" d="M139.36,57.77c0-.44.23-.8.53-.8"/><path class="cls-2" d="M116.46,34.07c0-7.21-2.27-13-5.06-13"/><path class="cls-2" d="M77.34,36.74c0-9.57-13.23-17.32-29.59-17.32"/><path class="cls-2" d="M53.61,39.66c0-4.71-12.62-8.52-28.23-8.52"/><path class="cls-2" d="M27.78,43.74c0-1.74-5.24-3.15-11.72-3.15"/><path class="cls-3" d="M19.53,47.12c0,3.38-3.93,6.12-8.79,6.12"/><path class="cls-2" d="M40.83,42.17c0,12.15-6.91,22-15.45,22"/><path class="cls-2" d="M67.17,37.86c0,19-9.28,34.29-20.75,34.29"/><path class="cls-2" d="M87.16,36.74c0,21-7.26,38.07-16.24,38.07"/><path class="cls-2" d="M101.81,34.82c0,19.31-2.38,34.93-5.33,34.93"/><path class="cls-2" d="M113.93,34.82c0,13.46-1.81,24.36-4.05,24.36"/><path class="cls-2" d="M107.85,34.51c0-11.14-6.39-20.15-14.28-20.15"/><path class="cls-2" d="M93.57,34.82A21.36,21.36,0,0,0,72.1,13.54"/><text class="cls-4" transform="translate(128.31 64.16)">Ceviche</text></g></g></svg>