<svg xmlns="http://www.w3.org/2000/svg" viewBox="0 0 277.42 89.72"><defs><style>.cls-1,.cls-2{fill:#fff;}.cls-2{font-size:31px;stroke:#fff;stroke-miterlimit:10;stroke-width:0.25px;font-family:PriscilliaScript-Medium, Priscillia Script;letter-spacing:0.01em;}</style></defs><title>Asset 1</title><g id="Layer_2" data-name="Layer 2"><g id="Layer_1-2" data-name="Layer 1"><path class="cls-1" d="M1.91,53.41S-3.8,41.62,12,32.38c0,0,8.11,4.58,11.71,10.51,0,0-.9-11-4.5-13.66,0,0,14.86-5.41,23.88-5.41,0,0,10.36,4.28,16,13.52,0,0-1.67-12.39-3.54-13.52s18.41.45,26.29,3.6c0,0,8.11,10.37,8.11,18,0,0,3.61-11.72,2-14,0,0,17.57,8.78,11,23C103,54.46,27.23,59.34,1.91,53.41Z"/><path class="cls-1" d="M103,56.35S39.34,63.77,6.93,57.52c0,0-7.15-1.57-6.92,8S11.85,73.38,15,72c0,0,2.9,0,2.23,2.46,0,0,2,11.84,16.09,12.07A49.79,49.79,0,0,0,44.48,82.1s4-3.13,11,2.68S70.84,82.55,72,82.32s0-6.48,13.63-6.93,14.75-13.63,14.75-13.63L84,65.78s-9.61,4.64-13.86,10.59S76,65,78.44,66.23l-15,1.34s-10.5,4.92-9.61,6c0,0-.45-3.36,4.92-6L46,67.8s-7,1.76-12.74,9.83c0,0,3.13-8.72,7.15-10.28,0,0-15.4-.62-15.13-1.61,0,0,61.39-.77,76.61-7.31Z"/><path class="cls-1" d="M92.77,0a10.27,10.27,0,0,1-3.58,11.47c-6.1,4.61-5.06,8.93-5.06,8.93s0,7.9,9.16,7c0,0-7.07-3.27-3.8-9.23,0,0,7.6-6.11,7.3-10.43S94.7.15,92.77,0Z"/><path class="cls-1" d="M80.24,5.14a6.75,6.75,0,0,1-2.53,7.41c-4,3-3.82,10.94,2.81,9.93,0,0-5.67-2.69-1.46-7.07S83.77,9.18,80.24,5.14Z"/><text class="cls-2" transform="translate(112.66 63.31) scale(1 1.26)">Birch Bistro</text></g></g></svg>